<?xml version="1.0" encoding="UTF-8"?>
<svg id="Capa_2" xmlns="http://www.w3.org/2000/svg" viewBox="0 0 441.4 129.07">
  <defs>
    <style>
      .cls-1 {
        fill: #5ab88f;
      }

      .cls-2 {
        fill: #9c91c5;
      }
    </style>
  </defs>
  <g id="Capa_1-2" data-name="Capa_1">
    <g>
      <g>
        <path class="cls-2" d="M187.37,45.71c6.34-1.38,12.68-2.76,19.02-4.15,2.16-.47,4.19,1.2,4.16,3.41-.29,17.34-11.61,33.28-29.07,38.65-22.64,6.97-46.7-6.57-52.21-30.04-4.63-19.72,6.12-40.22,24.98-47.61,18.46-7.24,38.47-.33,48.98,14.85,1.25,1.8.51,4.29-1.51,5.12-5.94,2.44-11.88,4.88-17.82,7.31-1.23.5-2.68.3-3.65-.61-4.55-4.26-11.48-5.7-17.76-2.74-6.47,3.05-10.12,10.3-8.76,17.31,1.83,9.47,11.37,15.02,20.32,12.26,5.48-1.69,9.38-6.05,10.73-11.21.33-1.28,1.31-2.28,2.6-2.56Z"/>
        <path class="cls-2" d="M64.07,85.37h-5.97c-1.36,0-2.59-.88-3.11-2.22-.71-1.84-1.43-3.69-2.13-5.54-3.2-8.33-6.42-16.67-9.63-25-.01-.05-.04-.11-.06-.16-.02.05-.05.11-.07.16-1.88,4.74-3.76,9.47-5.65,14.21-2.16,5.46-4.33,10.91-6.5,16.37-.53,1.32-1.75,2.19-3.1,2.19H3.37c-2.42,0-4.05-2.64-3.09-5.01L29.32,8.53l1.31-3.24c1.17-2.89,5.01-2.89,6.18,0l1.31,3.24,29.04,71.83c.96,2.37-.67,5.01-3.09,5.01Z"/>
        <path class="cls-2" d="M427.46,10.7c-7.26-6.41-16.79-10.3-27.23-10.3s-19.98,3.89-27.24,10.3c-8.55,7.54-13.94,18.57-13.94,30.87,0,22.75,18.44,41.18,41.18,41.18s41.16-18.43,41.16-41.18c0-12.29-5.39-23.34-13.94-30.87ZM400.54,57.49c-8.8,0-15.91-7.13-15.91-15.92s7.12-15.91,15.91-15.91,15.91,7.13,15.91,15.91-7.13,15.92-15.91,15.92Z"/>
        <path class="cls-2" d="M267.04,82.82h-5.63c-1.36,0-2.59-.88-3.11-2.22-.74-1.9-1.47-3.8-2.21-5.71-3.2-8.26-6.4-16.51-9.6-24.76-.04-.08-.06-.16-.09-.24-.04.08-.06.16-.09.24-1.93,4.8-3.84,9.61-5.77,14.41-2.14,5.36-4.3,10.74-6.45,16.1-.53,1.32-1.75,2.18-3.09,2.18h-24.65c-2.42,0-4.05-2.64-3.09-5.01L233.6,2.74c1.17-2.89,5.01-2.89,6.18,0l30.35,75.07c.96,2.37-.67,5.01-3.09,5.01Z"/>
        <path class="cls-2" d="M355.68,7.17v74.32c0,2.19-1.77,3.96-3.96,3.96h-27.94c-1.28,0-2.48-.62-3.22-1.66-8.71-12.19-17.43-24.39-26.14-36.58-2.24-3.14-7.19-1.55-7.19,2.31v31.97c0,2.19-1.77,3.96-3.96,3.96h-5.87c-2.19,0-3.96-1.77-3.96-3.96V7.17c0-2.19,1.77-3.96,3.96-3.96h26.42c1.28,0,2.48.62,3.23,1.66,9.22,12.91,18.44,25.81,27.66,38.72,2.24,3.14,7.19,1.55,7.19-2.3V7.17c0-2.19,1.77-3.96,3.96-3.96h5.87c2.19,0,3.96,1.77,3.96,3.96Z"/>
        <path class="cls-2" d="M108.43,57.44c5.13-1.97,9.54-5.19,12.69-9.42,7.55-10.18,7.03-25.35-.24-35.4-9.82-13.56-31.75-17.39-49.32-5.55.01,9.43.02,18.88.04,28.32-.01,14.66-.02,29.32-.04,43.98,0,1.85,1.52,3.37,3.37,3.37h46.43c2.82,0,4.39-3.24,2.65-5.45-5.2-6.61-10.39-13.24-15.59-19.85ZM97.51,13.95c8.79,0,15.93,7.14,15.93,15.93,0,8.23-6.24,15-14.23,15.83-.56.06-1.12.1-1.7.1-8.8,0-15.93-7.13-15.93-15.93,0-1.9.33-3.72.94-5.4,2.21-6.13,8.08-10.52,14.98-10.52Z"/>
      </g>
      <g>
        <path class="cls-1" d="M61,102.97v25.68h-3.95v-13.94l-8.34,13.52h-.03l-8.36-13.54v13.96h-3.95v-25.68h.3l12.02,18.28,12.01-18.28h.3Z"/>
        <path class="cls-1" d="M69.77,107.4v6.44h9.51v3.93h-9.51v6.96h11.03v3.93h-14.97v-25.14h14.97v3.88h-11.03Z"/>
        <path class="cls-1" d="M109.51,102.97v25.68h-3.95v-13.94l-8.34,13.52h-.03l-8.36-13.54v13.96h-3.95v-25.68h.3l12.02,18.28,12.01-18.28h.3Z"/>
        <path class="cls-1" d="M113.13,116.11c0-7.17,5.83-13.04,12.99-13.04s13,5.86,13,13.04-5.86,12.94-13.02,12.94-12.97-5.83-12.97-12.94ZM135.14,116.08c0-4.97-4.07-9.03-9.03-9.03s-9,4.05-9,9.03,4.04,8.98,9,8.98,9.03-4.04,9.03-8.98Z"/>
        <path class="cls-1" d="M156.55,128.65l-6.77-9.73h-3.09v9.73h-3.95l-.02-25.14h7.81c4.68,0,8.51,3.6,8.51,8.08,0,3.24-2.09,6.07-4.97,7l7.31,10.06h-4.85ZM150.64,115.65c2.37.02,4.35-1.9,4.35-4.15s-2.01-4.07-4.35-4.07h-3.96v8.22h3.96Z"/>
        <path class="cls-1" d="M164.05,103.51h3.95v25.14h-3.95v-25.14Z"/>
        <path class="cls-1" d="M188.65,124.83h-11.9l-1.71,3.82h-4.27l11.82-25.65h.23l11.82,25.65h-4.27l-1.72-3.82ZM187.12,121.45l-4.41-9.82-4.43,9.82h8.84Z"/>
        <path class="cls-1" d="M195.19,124.24l3.12-2.23c1.12,1.96,3.21,3.09,5.63,3.09,2.82,0,4.96-1.36,4.96-3.27,0-2.32-3.31-3.73-6.24-4.99-2.95-1.31-6.22-2.84-6.22-6.78s3.57-6.99,8.09-6.99c3.59,0,6.27,1.73,7.3,4.49l-2.93,2.03c-.78-1.7-2.51-2.65-4.34-2.65-2.31,0-4.15,1.43-4.15,3.21,0,1.96,2.32,2.67,5.38,3.98,3.98,1.75,7.06,3.67,7.06,7.63,0,4.46-3.87,7.33-8.97,7.33-4.13,0-7.27-1.93-8.7-4.83Z"/>
        <path class="cls-1" d="M245.71,116.11c0,7.72-4.97,12.54-12.96,12.54h-7.16v-25.14h7.16c7.98-.02,12.96,4.82,12.96,12.6ZM241.71,116.1c0-5.33-3.46-8.67-8.98-8.67h-3.21v17.29h3.26c5.49,0,8.94-3.32,8.94-8.62Z"/>
        <path class="cls-1" d="M253.26,107.4v6.44h9.51v3.93h-9.51v6.96h11.03v3.93h-14.97v-25.14h14.97v3.88h-11.03Z"/>
        <path class="cls-1" d="M295.04,121c0,3.85-2.92,7.66-7.91,7.66h-9.4v-25.14h6.86c4.34,0,7.27,3.12,7.27,6.46,0,2.71-1.89,4.52-2.82,4.52,2.82,0,6,2.59,6,6.5ZM281.66,107.35v6.27l3.12-.02c1.95.02,3.38-1.33,3.38-3.12s-1.56-3.13-3.34-3.13h-3.17ZM291.19,120.73c0-1.9-1.62-3.65-4.48-3.65l-5.05.02v7.7h5.12c2.26,0,4.41-1.64,4.41-4.07Z"/>
        <path class="cls-1" d="M313.53,124.83h-11.9l-1.71,3.82h-4.27l11.82-25.65h.23l11.82,25.65h-4.27l-1.72-3.82ZM312,121.45l-4.41-9.82-4.43,9.82h8.84Z"/>
        <path class="cls-1" d="M318.76,116.1c0-7.08,5.91-13.02,12.97-13.02,3.26.05,6.27,1.43,8.73,3.84l-2.29,3.1c-1.76-1.76-4.05-2.93-6.52-2.93-4.55,0-8.9,3.99-8.9,9.03s4.41,8.98,8.92,8.98c2.57,0,4.79-1.28,6.52-2.99l2.28,3.18c-2.17,2.14-4.93,3.77-8.67,3.77-7.13,0-13.04-5.86-13.04-12.96Z"/>
        <path class="cls-1" d="M359.42,124.83h-11.9l-1.71,3.82h-4.27l11.82-25.65h.23l11.82,25.65h-4.27l-1.72-3.82ZM357.89,121.45l-4.41-9.82-4.43,9.82h8.84Z"/>
        <path class="cls-1" d="M380.82,107.43h-6.74v21.22h-3.96v-21.22h-6.74v-3.92h17.43v3.92Z"/>
        <path class="cls-1" d="M399.78,124.83h-11.9l-1.71,3.82h-4.27l11.82-25.65h.23l11.82,25.65h-4.27l-1.72-3.82ZM398.25,121.45l-4.41-9.82-4.43,9.82h8.84ZM394.29,101.44h-2.85l3.09-5.1h3.48l-3.71,5.1Z"/>
      </g>
    </g>
  </g>
</svg>